<svg width="566" height="232" viewBox="0 0 566 232" fill="none" xmlns="http://www.w3.org/2000/svg">
<g clip-path="url(#clip0_17_60)">
<rect width="566" height="232" rx="13" fill="white"/>
<rect x="10" y="20" width="60" height="60" rx="5" fill="#D9D9D9"/>
<rect x="10" y="100" width="60" height="60" rx="5" fill="#D9D9D9"/>
<rect x="280" y="36.5" width="41" height="12" rx="6" fill="#5F021F"/>
<rect x="280" y="54.5" width="256" height="15" rx="7.5" fill="#4E4E4E"/>
<rect x="280" y="75.5" width="259" height="8" rx="4" fill="#D9D9D9"/>
<rect x="280" y="85.5" width="259" height="8" rx="4" fill="#D9D9D9"/>
<rect x="280" y="95.5" width="259" height="8" rx="4" fill="#D9D9D9"/>
<rect x="280" y="105.5" width="91" height="8" rx="4" fill="#D9D9D9"/>
<rect x="280" y="119.5" width="68" height="15" rx="7.5" fill="#4E4E4E"/>
<rect x="280" y="144.5" width="41" height="10" rx="5" fill="#D9D9D9"/>
<rect x="280.5" y="165" width="79" height="23" rx="4.5" fill="white"/>
<rect x="280.5" y="165" width="79" height="23" rx="4.5" stroke="#D9D9D9"/>
<rect x="380.5" y="165" width="79" height="23" rx="4.5" fill="white"/>
<rect x="380.5" y="165" width="79" height="23" rx="4.5" stroke="#D9D9D9"/>
<rect x="80" y="20" width="190" height="190" rx="5" fill="#D9D9D9"/>
</g>
<defs>
<clipPath id="clip0_17_60">
<rect width="566" height="232" rx="13" fill="white"/>
</clipPath>
</defs>
</svg>
